<?xml version="1.0" encoding="utf-8"?>
<!-- Generator: Adobe Illustrator 24.0.1, SVG Export Plug-In . SVG Version: 6.00 Build 0)  -->
<svg version="1.1" id="Calque_1" xmlns="http://www.w3.org/2000/svg" xmlns:xlink="http://www.w3.org/1999/xlink" x="0px" y="0px"
	 viewBox="0 0 288.4 329" style="enable-background:new 0 0 288.4 329;" xml:space="preserve">
<style type="text/css">
	.st0{fill:#FEFEFE;}
	.st1{fill:#523B5D;}
	.st2{fill:#F1C327;}
	.st3{fill:#00A550;}
	.st4{fill:#FA9200;}
	.st5{fill:#E63A5E;}
	.st6{fill:#F8B5A7;}
	.st7{fill:#00ADC7;}
	.st8{fill:#C9395D;}
	.st9{fill:#F8B5A8;}
	.st10{fill:#CB4A00;}
	.st11{fill:#523C5D;}
	.st12{fill:#533C5D;}
	.st13{fill:#CC3A5D;}
	.st14{fill:#018C45;}
	.st15{fill:#028C46;}
	.st16{fill:#008C44;}
	.st17{fill:#F2C42A;}
	.st18{fill:#F2C52B;}
	.st19{fill:#BBE3D5;}
	.st20{fill:#BEE4D7;}
	.st21{fill:#BCE3D5;}
	.st22{fill:#F2C52E;}
	.st23{fill:#FDD9A5;}
	.st24{fill:#B7E1D2;}
	.st25{fill:#D04765;}
	.st26{fill:#AFE1C7;}
	.st27{fill:#CC395D;}
	.st28{fill:#422F4B;}
	.st29{fill:#CC4A00;}
	.st30{fill:#CF4E00;}
	.st31{fill:#FDFAF9;}
	.st32{fill:#4A4745;}
	.st33{fill:#F9F0EE;}
	.st34{fill:#514A46;}
	.st35{fill:#655752;}
	.st36{fill:#6F5D58;}
	.st37{fill:#D85E73;}
	.st38{fill:#504946;}
	.st39{fill:#8D7069;}
	.st40{fill:#D24C68;}
</style>
<g>
	<path class="st0" d="M0,211.9c0.2,0,0.4-0.1,0.6-0.1c2.8-1.1,5.4-0.1,8,0.6c1,0.2,1.3,1.2,1.6,2.1c0.5,1.4,0.7,2.8,1.1,4.2
		c2.6,12.7,6.4,25,12.3,36.5c2.3,4.5,5.1,8.7,8.9,12.2c1.8,1.7,3.9,3,6.2,3.9c3.4,1.3,6.2,0.5,8.6-2.3c3.3-3.9,4.7-8.6,5.8-13.4
		c2.1-8.7,3.1-17.5,3.7-26.4c0.4-6.3,0.6-12.5,0.9-18.8c0-0.9-0.1-1.8,0.5-2.6c1.4,0,1.2,1.2,1.4,2c1.4,5.3,2.4,10.6,3.5,16
		c6,28.8,11.8,57.6,17.6,86.4c0.3,1.3,0.4,2.6,1.4,3.6c1.9,3.8,2.4,8.1,3.4,12.2c0.1,0.4-0.1,0.7-0.4,1c-27.7,0-55.5,0-83.2,0
		c-1.6,0-1.9-0.3-1.9-1.9C0.1,288.7,0,250.3,0,211.9z"/>
	<path class="st1" d="M85.1,328.9c-1.1-4.3-2.1-8.7-3.2-13c1.7-1.9,3.8-2.6,6.3-2.3c0.4,2,0.2,4.6,1.4,5.9c1.3,1.4,3.9,0.1,5.9,0.2
		c1,0.1,2,0,3.4,0c-4.6,3.2-9,6.2-13.3,9.1C85.4,328.9,85.3,328.9,85.1,328.9z"/>
	<path class="st2" d="M133.9,0c1.5,4.5,3,9.1,4.5,13.6c-0.3,0.1-0.5,0.2-0.8,0.3C136,9.3,134.2,4.8,133,0C133.3,0,133.6,0,133.9,0z"
		/>
	<path class="st1" d="M28.5,197.8c-3.3,0-6.6,0-10.1,0c1.6-4.3,3.2-8.4,4.2-12.6c2-8.6,2.7-17.4,3.7-26.2
		c1.8-15.4,3.3-30.8,8.3-45.6c1.9-5.6,4.3-10.8,8-15.4S51,90.5,57,89.8c0.4,0,0.7-0.2,1.1-0.4c1-0.9,2.2-0.9,3.4-1
		c3.6-0.5,7.1-1.3,10.8-0.7c8.4-0.8,16.7-1.5,25.1-2.3c3.4-0.3,3.3-0.4,4,3c0.9,4.7,1.7,9.5,2.9,14.1c0.4,1.6-0.2,1.9-1.4,2.1
		c-2.5,0.4-4.9,1.1-7.4,1.3c-1.9,0.1-2.8,0.7-2.5,2.7c0.1,0.4,0.1,0.9-0.3,1.3c-1.2-0.5,0.2-2.5-1.4-2.6c-1-0.1-2.1,0.4-3.1,0.6
		c-0.5,0.1-1,0.2-1.5,0.3c2,0.7,4.3,0.3,6,1.8c-0.4,12.1-0.7,24.2-1.1,36.3c-0.6,16.4-1.1,32.8-1.7,49.2c0,0.8-0.1,1.7-0.2,2.5
		c-0.8,0.8-1.8,0.6-2.8,0.6c-18.3,0.1-36.5,0.1-54.8,0.1C30.7,198.4,29.5,198.5,28.5,197.8z"/>
	<path class="st3" d="M275.9,47c1.6,5.8,2.4,11.7,3.6,17.5c2.1,10.3,4,20.6,5.9,30.9c0.4,2,0.4,4,0.1,6c-1.2,6.8-6.9,10.4-14.5,9.1
		c-5.2-0.9-10.4-1.7-15.6-2.6c-1.4,0.4-2.8-0.1-4.1-0.4c1.5,1.3,3.5,2.2,4.6,4c1.2,7.9,2.5,15.7,3.6,23.6c1.4,9.7,2.6,19.4,4,29.1
		c0.3,2-0.2,2.7-2.1,2.7c-2.7,1.4-5.7,1.6-8.6,2.1c-11.9,2.3-23.9,4.5-35.8,6.8c-1.8,0.1-3.5,1.1-5.4,0.5c-0.7-4.8-0.5-9.6-0.8-14.4
		c-0.6-13.6-1-27.3-1.5-41c0-0.8,0.1-1.5-0.7-2.1c-3.6-2.7-4.7-6.6-5-10.9c-0.1-1-0.1-1.8-1.3-2c1.4-1.5,1.2-3.5,1.9-5
		c-1.3,1.3-1.8,3.4-3.2,5c-9.3-0.1-17.8-3-26.3-6.6c-9.4-4-14.7-12-19.2-20.5c-4.2-8-7.1-16.4-9.5-25c-0.7-0.6-0.7-1.3,0.1-1.6
		c1.8-0.7,3.5-1.8,5.6-1.2c3.7,7.5,7.7,14.9,12.3,22c6.9,10.8,16.3,16,29.1,15c6.7-0.5,13.3-1.2,19.8-2.5c0.7-0.1,1.5-0.4,2.3-0.2
		c-0.2,1.1-0.5,2.1-0.6,3.2c-0.7,4.9,2.4,7.9,7.2,7.1c6.7-1.2,10.6-5.4,12.8-11.5c0.2-0.5,0.3-1,0.4-1.5c1.6-1.2,3.4-0.8,5.1-0.6
		c5.4,0.8,10.1,3.4,14.9,5.7c0.2,0.1,0.3,0.3,0.4,0.5c4,1.8,8,3.5,12,5.3c1.8,2.6,4.2,4.8,6,7.4c-0.4-1.9-1.3-3.7-1.4-5.7
		c0.2-0.7,0.3-1.5,0-2.2c-1.3-12.1-2.4-24.2-3-36.4c-0.1-2.4-0.2-4.7-0.4-7.1c-0.1-0.9,0.1-1.5,1.1-1.6
		C271.6,46.6,273.7,46.3,275.9,47z"/>
	<path class="st4" d="M211.5,176.4c1.7-0.3,3.4-0.6,5.1-0.9c14.1-2.1,28.3-3.8,42.4-5.3c0.9-0.1,1.8-0.4,2.6,0.3
		c2.2,18.4,2.6,36.8,2.7,55.3c0,0.9-0.5,2,0.5,2.7c0.2,1.4,0,2.7,0,4.1c0,0.5-0.1,1-0.1,1c0.2-1.4,0.3-3.2,0.1-5.1
		c3.1-12,6.3-24,9.4-36c0.1-0.2,0.3-0.4,0.4-0.5c2.1-0.5,4.1,0,5.8,1.4c0.2,4.9-0.5,9.8-0.9,14.7c-0.7,8.9-1.6,17.7-3.6,26.4
		c-0.9,3.6-2,7.1-3.7,10.4c-0.9,1.7-1.9,3.3-3.3,4.7c-4.1,4.1-9.5,4.2-13.8,0.3c-3.7-3.4-5.9-7.8-7.8-12.3c-4.5-10.7-7-22-9.1-33.4
		c-0.4-2-0.7-3.9-1-5.9c-0.5-0.5-0.4-1.1-0.4-1.5c-0.5,3.3,0,6.8-0.4,10.3c-0.7,21.5-2.5,43-4.6,64.5c-1.2,12.3-2.5,24.6-3.7,36.8
		c-0.2,2-0.5,3.2-2.7,3.1c-2.2,0.5-4.4,0.6-6.5-0.1c-1.5,0.1-2-0.5-2.1-2.1c-0.7-17.9-1.5-35.9-2.2-53.8c-1.1-25.7-2.2-51.4-3.3-77
		C211.5,177.6,211.5,177,211.5,176.4z"/>
	<path class="st5" d="M88.2,313.7c-2.2,0.5-4.3,1.3-6.3,2.3c-1.3,0.3-1.3-0.6-1.4-1.5c-4.1-20.6-8.2-41.2-12.4-61.7
		c-3-14.7-6.1-29.4-9.2-44.1c-0.1-0.3-0.3-0.5-0.4-0.8c-1-0.9-2.2-0.9-3.4-0.7c-3,0.5-6,0.8-8.7,1.1c3.2,0.5,6.8,0.9,10.3,1.6
		c0.6,0.1,1.2,0.2,1.7,0.7c-0.3,15.9-0.9,31.7-5,47.2c-1.1,4.1-2.5,8.1-5.2,11.4c-2.7,3.4-5.9,4.3-10,2.7c-4-1.6-7.1-4.5-9.7-7.9
		c-5.8-7.6-9.3-16.3-12.3-25.3c-2.2-6.5-4.1-13-5.1-19.7c1.3-1.5,2.9-2.1,4.8-2.3c2-1,2.9-0.2,4,1.6c3.6,6.1,7.3,12.1,11,18.1
		c1.4,0.1,1.4,1.4,2,2.2c1.4,1.8,2.4,3.7,3,4.9c-1.8-4-3.8-8.9-5.4-13.9c-0.4-3.6-0.8-7.1-1.1-10.7c-0.4-5.3-0.9-10.7-0.7-16.1
		c1.1-0.9,2.4-1,3.7-1.1c11.3-0.8,22.6-1.8,33.9-2.7c7-0.5,14-1,21.1-1c0.7,0,1.5-0.2,2.2,0.2c0.1,0.8,0.2,1.7,0.2,2.5
		c0,36.6,0,73.2,0,109.8C89.6,311.7,89.8,313.1,88.2,313.7z"/>
	<path class="st6" d="M151.8,51c-1.6,0.5-3.2,1-4.8,1.4c-0.9,0.2-1.1,0.6-0.9,1.4c-0.8,4.9-1.2,9.9-2.5,14.7
		c-5,17.4-16.3,28.5-33.4,34c-1.3,0.4-1.8,0.2-2.1-1.2c-0.9-5.1-1.9-10.3-3.3-15.3c-0.5-1.9,0.7-1.6,1.8-1.7
		c8.4-0.7,15.6-4,21.5-10.1s9.4-13.4,10.9-21.6c1-5.4,1.7-10.7,0.1-16.1c-0.2-0.5-0.5-1.4,0.3-1.6c0.9-0.2,0.8,0.6,1,1.2
		c0.2,0.4,0.3,0.8,0.8,1.2c0-1.8,0-3.7,0-5.5c0-0.7-0.3-1.7,0.9-1.7c0.8,0,1.9-0.5,2.3,0.8c0.3,1,0.7,1.6,1.9,1.2
		c1-0.3,1,0.7,1.2,1.3c0.5,1.7,1,3.4,1.4,5c0.3,0,0.4,0,0.5,0c0.7-0.5,0.9-2.1,1.9-1.7c0.9,0.4,0.6,1.9,0.2,2.7
		C149.7,43.3,151.4,47.2,151.8,51z"/>
	<path class="st5" d="M255.3,88.2c-3.1-1.3-6.2-2.5-9.2-3.9c-3.6-1.6-7.2-2.2-11.1-1.8c-0.4,0-0.9,0-1.3,0c-1.5,0.4-2.9,0.4-3.7-1.2
		c-1-2-2.3-4-0.7-6.3c0.4-0.5,0.6-1.2,0.9-1.8c0.5-0.8,1.3-1.2,2-1.9c0.4-0.4,0.8-0.8,0.6-1.4s-0.9-0.6-1.4-0.5
		c-2.3,0.8-2.7-0.1-2.6-2.3c0.1-2.1-1.1-3.8-2.5-5.3c-1-1.1-2-2.1-2.3-3.5c-1.4,0-2.1,1.9-3.6,1.1c1.3-2.8,3.4-4.7,6.3-5.6
		c3.4-1,6.5,0.4,7.6,3.7c0.9,2.8,2.1,4.7,5.5,4.8c1.9,0,2.9,1.8,3.1,3.7c0.1,1,0.1,2,0,3c-0.2,1.9,0.7,3.2,2.5,3.6
		c3.1,0.7,4.5,2.6,4.4,5.7c-0.1,1.8,1.2,2.9,2.4,4C253.9,84,255.3,85.7,255.3,88.2z"/>
	<path class="st6" d="M230,75.1c-1.8,1.5-0.7,3.2-0.2,4.7c0.6,1.8,1.7,3,3.8,2.7c-1.2,0.3-1.7,1.2-2.2,2.3
		c-2.2,5.2-6.6,8.4-11.1,8.2c-2.3-0.1-4-1.7-4.2-4c-0.1-1.9,0.1-3.8,1.5-5.3c1.9-2.2,2.6-5,2.9-7.8c1.1-0.2,0.4-0.6,0.1-0.9
		c-3.9-1.9-4.1-2.3-3.3-6.7c0.6-3.1,1.2-6.2,2.8-9c1.5-0.2,2.4-1.6,4-2.2c0.1,1.8,1,3.1,2.3,4.2c2.2,2.1,3.3,4.5,2.4,7.9
		c0.9-0.2,1.6-0.5,2.3-0.6s1.6-0.3,2.1,0.4c0.6,0.9,0,1.7-0.6,2.2c-0.7,0.7-1.5,1.2-2.3,1.8C229.2,73.6,228.7,74.1,230,75.1z"/>
	<path class="st6" d="M72.2,87.7c-4.7,0.6-9.5,1.2-14.2,1.8c0.7-4,1.4-8,2.1-11.9c1.2,0.1,2.4,0.3,3.7,0.2c2.2-0.1,3.1-1.5,2.2-3.5
		c-0.1-0.1-0.1-0.3-0.2-0.4c-0.8-1.1-1.9-2.4-0.8-3.7c1.2-1.4,2.5-0.3,3.7,0.5c0.7,0.5,1.3,0.3,1.6-0.6c0.3-1.2,0.3-2.6,1.6-3.1
		c1.9-0.8,3.9-1.3,6-1.1c0.3,2.6,0.7,5.1,1,7.7c0.2,1.8-2.1,4.1-3.9,4.1c-0.6,0-1.3-0.5-1.5,0.4c-0.2,0.8,0.5,1.2,1.1,1.6
		c0.6,0.3,1.8,0,1.8,1c0,1.1-1.2,1.7-2.1,1.8c-2.5,0.2-2.9,1.9-3.1,3.9C70.8,87.3,71.4,87.5,72.2,87.7z"/>
	<path class="st7" d="M77.7,65.8c-0.7,0.3-1.4,0.7-2.1,0.8c-2.8,0.2-5.2,0.8-5,4.5c0.1,1.1-0.9,1-1.7,0.7c-0.3-0.1-0.5-0.4-0.7-0.6
		c-0.9-0.7-2-1.8-3-0.8c-1.2,1.1,0,2.3,0.9,3.1c1.6,1.3,0.6,2.9,0.4,4.2c-0.2,1.2-1.6,0.7-2.3,0.6c-1.4-0.2-3.1,1-4.1-0.8
		c0.9-4.3,1.7-8.7,3-12.9c0.8-2.7,2.3-4.4,5.2-4.7c1-0.1,2-0.3,2.9-0.5c1.9-0.2,3.7-0.3,4.7-2.4c0.5-1.1,1.7-1.5,3-1.2
		c1.2,0.3,1.7,1.3,1.9,2.4C81.5,61.4,80.1,63.8,77.7,65.8z"/>
	<path class="st8" d="M89.5,198.1c-8.5,0.1-17,1.1-25.5,1.8c-4,0.3-8,0.6-12,0.9c-7.4,0.7-14.8,1.3-22.2,1.9c-0.4,0-0.8,0-1.1,0
		c0-1.6,0-3.3-0.1-4.9c4.2,0,8.4-0.1,12.6-0.1c16.1,0,32.2,0,48.4,0C89.5,197.8,89.5,198,89.5,198.1z"/>
	<path class="st9" d="M275.9,47c-2.1,0.3-4.2,0.6-6.4,0.9c-0.4-3.3-1-6.6-3.1-9.4c-0.4-0.6-1.5-1.3-0.7-2.1c0.9-1,1.3,0.5,2,0.7
		c0.3,0.1,0.6,0.2,0.9,0.3c0.7,0.5,1.6,0,2.3,0.3c0.3,0-0.1-0.5,0-0.2c-0.8,0.2-1.6,0.3-2.3-0.1c0.4-2.2,0.9-4.3,1.3-6.5
		c0.3-2.1,1.8-1.8,3.1-1.8c1.7,0,1.1,1.4,1.1,2.2C274.3,36.6,274.8,41.8,275.9,47z"/>
	<path class="st1" d="M219,311.2c2.2-0.1,4.4-0.4,6.5,0.1c-0.2,3.4-0.5,6.9-0.6,10.3c-0.1,1.2-0.3,1.8-1.7,1.8
		c-3.7-0.1-7.5,0-11.9,0c1.9-1.4,3.3-2.6,4.8-3.4c1.9-1.1,2.7-2.5,2.6-4.6C218.8,313.9,219,312.5,219,311.2z"/>
	<path class="st10" d="M261.7,170.5c-8.6,1-17.2,2.3-25.8,3.1c-6.4,0.6-12.8,2-19.3,1.9c6.7-1.3,13.4-2.7,20.1-4
		c7.8-1.5,15.7-3,23.5-4.5c0.4-0.1,0.7,0,1.1,0C261.5,168.1,261.9,169.3,261.7,170.5z"/>
	<path class="st11" d="M280.5,193.4c-1.9-0.5-3.8-0.9-5.8-1.4c0.2-3.3,1.4-6.4,2.1-9.6c0.2-0.8,0.6-1,1.3-0.8
		c3.4,0.7,6.8,1.4,10.3,2.5c-1.6,0.6-3.1,1.3-4.7,1.8c-1.3,0.4-2,1.2-2.1,2.6C281.3,190.1,281.2,191.8,280.5,193.4z"/>
	<path class="st12" d="M15.9,216.6c-1.6,0.8-3.2,1.5-4.8,2.3c-0.6-1-0.9-2.1-1-3.2c-0.3-2.4-1.7-3.2-4-3.3c-1.8,0-3.6-0.3-5.4-0.5
		c1.5-1.8,3.8-2.1,5.7-3.1c4.5-2.2,4.5-2.1,6.8,2.3C14.1,212.9,15,214.7,15.9,216.6z"/>
	<path class="st13" d="M30.4,229.5c1.4,1.3,1.5,3.2,2.2,4.8c1.5,3.5,2.9,7.1,3.9,11c-1.9-3-3.8-6-5.6-8.9
		C30.7,234,30.5,231.8,30.4,229.5z"/>
	<path class="st14" d="M272.3,95.4c0.6,2.2,1.2,4.3,1.9,6.6c-1.5-0.3-1.8-1.6-2.5-2.4c-1.3-1.4-2.5-2.8-3.8-4.2
		c-0.4-0.5-1.3-1-0.6-1.9c1.3,0.5,2.7,1,4,1.5C271.6,95.2,272.1,95,272.3,95.4z"/>
	<path class="st15" d="M255.8,111.5c-1.9-1.4-3.9-2.8-5.8-4.2c1.9-0.3,3.7-0.1,5.4,0.5C255.5,109.1,255.7,110.3,255.8,111.5z"/>
	<path class="st16" d="M201,106c0.4-2.7,2.2-4.6,4-6.5c-0.5,2-0.9,4-1.4,6c-0.2,0.6-0.9,0.5-1.4,0.6C201.9,106,201.5,106,201,106z"
		/>
	<path class="st17" d="M157.8,1.7c-1.7,3.7-3.4,7.4-5.1,11.1c-0.3-0.1-0.6-0.3-0.9-0.4c1.7-3.7,3.4-7.4,5.1-11
		C157.2,1.5,157.5,1.6,157.8,1.7z"/>
	<path class="st17" d="M124.3,21.6c-3.7-1.4-7.3-2.9-11-4.3c0.1-0.2,0.2-0.5,0.3-0.7c3.8,1.1,7.4,2.7,11,4.2
		C124.5,21.1,124.4,21.3,124.3,21.6z"/>
	<path class="st18" d="M175.8,17c-3.3,1.6-6.6,3.2-9.9,4.8c-0.1-0.3-0.3-0.6-0.4-0.8c3.3-1.6,6.6-3.2,9.9-4.9
		C175.5,16.4,175.7,16.7,175.8,17z"/>
	<path class="st17" d="M177,36.5c-3.6-0.3-7.2-0.7-11.1-1.1C167.3,34.4,175,35,177,36.5z"/>
	<path class="st18" d="M114.2,41.4c3.4-1.2,6.8-2.5,10.2-3.7c0.1,0.3,0.2,0.6,0.3,0.9c-3.4,1.3-6.9,2.5-10.3,3.8
		C114.4,42,114.3,41.7,114.2,41.4z"/>
	<path class="st19" d="M88.1,62.8c2.9-1.4,5.7-2.8,8.6-4.3c0.1,0.3,0.3,0.5,0.4,0.8c-2.8,1.6-5.6,3-8.6,4.2
		C88.4,63.3,88.2,63,88.1,62.8z"/>
	<path class="st20" d="M206.4,63c-2.9,0.2-5.6,0.4-8.7,0.6C199.8,62,204.7,61.7,206.4,63z"/>
	<path class="st21" d="M90.8,52.8c-1.4,2.2-2.8,4.3-5,5.7C87,56.3,88.5,54.2,90.8,52.8z"/>
	<path class="st22" d="M168.7,53.8c-2.1-0.2-5.3-3-6-5.3C164.8,50.2,166.7,52.1,168.7,53.8z"/>
	<path class="st19" d="M200.3,52.9c2.4,0.2,4.4,1.2,6.4,2.4C204.3,55.3,202.3,54.2,200.3,52.9z"/>
	<path class="st21" d="M207.8,43.5c1.3,1.8,2.5,3.6,4,5.6C210,48.5,207.8,45.7,207.8,43.5z"/>
	<path class="st23" d="M236.5,206.9c0-4,0-8,0-12.7c0.5,1.7,0.9,2.8,0.8,4c-0.9,1.7-0.2,3.6-0.4,5.4
		C236.8,204.6,237.2,205.8,236.5,206.9z"/>
	<path class="st24" d="M90,69.1c2-0.5,3.9-0.7,5.9,0C94,69.7,92,69.6,90,69.1z"/>
	<path class="st25" d="M220.8,75.1c0.7,0,1.2,0.3,1.9,0.9c-0.8,0.5-1.4,0.8-2-0.1C220.7,75.7,220.8,75.4,220.8,75.1z"/>
	<path class="st26" d="M272.3,95.4c-0.4,0-0.7-0.1-1-0.4c0.8-0.5,0.3-1.3,0.5-1.9C272.4,93.7,272.3,94.6,272.3,95.4z"/>
	<path class="st27" d="M58.3,210.5c-4.8-0.7-9.5-1.3-14.8-2c1.6-1.2,3.1-0.8,4.4-1c2.9-0.6,5.9-0.6,8.8-1.1c1.5-0.3,1.8,0.3,1.7,1.5
		C58.4,208.7,58.4,209.6,58.3,210.5z"/>
	<path class="st28" d="M92.5,109.7c-2.5-0.5-5-1-7.5-1.5c2.2-1.2,4.5-1.5,6.8-1.8c0.7-0.1,0.6,0.5,0.7,0.9
		C92.5,108.1,92.5,108.9,92.5,109.7L92.5,109.7z"/>
	<path class="st29" d="M227.8,189.3c2.6,0,5.2,0,7.9,0c0.5,0,1.2,0,1.2,0.7c0.1,0.9,0.4,1.9-0.2,2.7c-0.4,0.6-1.1,0-1.6-0.2
		c-2.4-0.9-4.9-1.9-7.3-2.9C227.7,189.6,227.7,189.5,227.8,189.3z"/>
	<path class="st30" d="M264.9,228.4c1.1,2.1,0.4,4-0.2,6C264.5,232.5,264.2,230.4,264.9,228.4L264.9,228.4z"/>
	<path class="st31" d="M230,75.1c-0.9,0-2.1-0.1-1.7-1.4c0.4-1.2,1.4-0.9,2.2-0.4C230.6,74,230.8,74.7,230,75.1z"/>
	<path class="st32" d="M222.7,71.5c-0.2,1.3-1.2,1.5-2.2,1.3c-0.9-0.2-1.9-0.5-1.5-1.9C220.3,70.9,221.5,70.9,222.7,71.5z"/>
	<path class="st33" d="M222.7,71.5c-1.2-0.1-2.5,0-3.7-0.6C220.4,70.1,221.6,70.4,222.7,71.5z"/>
	<path class="st34" d="M225.4,65.1c0,0.5-0.2,0.8-0.7,0.8c-0.4,0-0.7-0.3-0.7-0.7c0-0.3,0.2-0.6,0.5-0.6
		C225,64.5,225.3,64.7,225.4,65.1z"/>
	<path class="st35" d="M220.6,64.3c0.1,0.4-0.1,0.6-0.4,0.7c-0.4,0.1-0.7,0-0.8-0.5c0-0.3,0.1-0.6,0.4-0.7
		C220.2,63.7,220.5,64,220.6,64.3z"/>
	<path class="st36" d="M224.2,62.5c0.6-0.4,1.3-0.5,1.4,0c0.2,0.7-0.5,0.2-0.8,0.2C224.7,62.7,224.5,62.6,224.2,62.5z"/>
	<path class="st37" d="M67.9,73.4c-0.8-0.5-1.6-1-2.3-2.5C66.9,71.8,67.6,72.4,67.9,73.4z"/>
	<path class="st38" d="M75.2,71.2c-0.1,0.4-0.3,0.8-0.7,0.7c-0.2-0.1-0.6-0.3-0.6-0.5c-0.1-0.4,0.2-0.7,0.6-0.8
		C74.9,70.5,75.1,70.8,75.2,71.2z"/>
	<path class="st39" d="M73.8,69c0.3-0.7,0.7-0.9,1.4-0.6c0.1,0,0.2,0.3,0.1,0.4C74.9,69.3,74.4,69.2,73.8,69z"/>
	<path class="st40" d="M268.7,37.4c1,0,1.9,0,2.9,0C270.6,37.7,269.6,38.3,268.7,37.4L268.7,37.4z"/>
</g>
</svg>
